# xmcd
#
# Track frame offsets:
#	150
#	18745
#	34887
#	53072
#	68570
#	83837
#	99770
#	115587
#	134125
#	142660
#	164537
#	182365
#	197347
#	218145
#	234995
#	251910
#	272562
#	288670
#	302710
#	313357
#
# Disc length: 4447 seconds
#
# Revision: 0
# Processed by: cddbd v1.5.2PL0 Copyright (c) Steve Scherf et al.
# Submitted via: EasyCDDAExtractor 2010.6.0.0
#
DISCID=1a115d14
DTITLE=Various Artist - The Best Beer Drinking Album in the World... Ever! CD
DTITLE=2
DYEAR=1999
DGENRE=
TTITLE0=The Fureys - When You Were Sweet Sixteen
TTITLE1=Foster and Allen - Maggie
TTITLE2=Louise Tucker - Midnight Blue
TTITLE3=F.R. David - Words
TTITLE4=Albert Hammond - Free Electric Band
TTITLE5=Suzi Quatro - She's In Love With You
TTITLE6=Chumbawamba - Tubthumping
TTITLE7=Terrorvision - Tequila
TTITLE8=Mac Davis - Tequila Sheila
TTITLE9=Exile - Kiss You All Over
TTITLE10=Toni Basil - Mickey
TTITLE11=Tight Fit - The Lion Sleeps Tonight
TTITLE12=Charles and Eddie - Would I Lie To You
TTITLE13=Divinyls - I Touch Myself
TTITLE14=Shaggy - In The Summertime
TTITLE15=Pussycat - Mississippi
TTITLE16=The Beach Boys - Good Vibrations
TTITLE17=Marmalade - Ob La Di Ob La Da
TTITLE18=Manfred Mann - Do Wah Diddy Diddy
TTITLE19=The Animals - House Of The Rising Sun
EXTD=
EXTT0=
EXTT1=
EXTT2=
EXTT3=
EXTT4=
EXTT5=
EXTT6=
EXTT7=
EXTT8=
EXTT9=
EXTT10=
EXTT11=
EXTT12=
EXTT13=
EXTT14=
EXTT15=
EXTT16=
EXTT17=
EXTT18=
EXTT19=
PLAYORDER=
